<svg width="50" height="50" viewBox="0 0 50 50" fill="none" xmlns="http://www.w3.org/2000/svg">
<rect width="50" height="50" rx="15" fill="#A9B0C2"/>
<path d="M25 20C25.5523 20 26 19.5523 26 19C26 18.4477 25.5523 18 25 18C24.4477 18 24 18.4477 24 19C24 19.5523 24.4477 20 25 20Z" stroke="white" stroke-linecap="round" stroke-linejoin="round"/>
<path d="M32 20C32.5523 20 33 19.5523 33 19C33 18.4477 32.5523 18 32 18C31.4477 18 31 18.4477 31 19C31 19.5523 31.4477 20 32 20Z" stroke="white" stroke-linecap="round" stroke-linejoin="round"/>
<path d="M18 20C18.5523 20 19 19.5523 19 19C19 18.4477 18.5523 18 18 18C17.4477 18 17 18.4477 17 19C17 19.5523 17.4477 20 18 20Z" stroke="white" stroke-linecap="round" stroke-linejoin="round"/>
<path d="M25 26C25.5523 26 26 25.5523 26 25C26 24.4477 25.5523 24 25 24C24.4477 24 24 24.4477 24 25C24 25.5523 24.4477 26 25 26Z" stroke="white" stroke-linecap="round" stroke-linejoin="round"/>
<path d="M32 26C32.5523 26 33 25.5523 33 25C33 24.4477 32.5523 24 32 24C31.4477 24 31 24.4477 31 25C31 25.5523 31.4477 26 32 26Z" stroke="white" stroke-linecap="round" stroke-linejoin="round"/>
<path d="M18 26C18.5523 26 19 25.5523 19 25C19 24.4477 18.5523 24 18 24C17.4477 24 17 24.4477 17 25C17 25.5523 17.4477 26 18 26Z" stroke="white" stroke-linecap="round" stroke-linejoin="round"/>
<path d="M25 32C25.5523 32 26 31.5523 26 31C26 30.4477 25.5523 30 25 30C24.4477 30 24 30.4477 24 31C24 31.5523 24.4477 32 25 32Z" stroke="white" stroke-linecap="round" stroke-linejoin="round"/>
<path d="M32 32C32.5523 32 33 31.5523 33 31C33 30.4477 32.5523 30 32 30C31.4477 30 31 30.4477 31 31C31 31.5523 31.4477 32 32 32Z" stroke="white" stroke-linecap="round" stroke-linejoin="round"/>
<path d="M18 32C18.5523 32 19 31.5523 19 31C19 30.4477 18.5523 30 18 30C17.4477 30 17 30.4477 17 31C17 31.5523 17.4477 32 18 32Z" stroke="white" stroke-linecap="round" stroke-linejoin="round"/>
</svg>
